<?xml version="1.0" encoding="utf-8"?>
<!-- Generator: Adobe Illustrator 24.0.0, SVG Export Plug-In . SVG Version: 6.00 Build 0)  -->
<svg version="1.1" id="Capa_1" xmlns="http://www.w3.org/2000/svg" xmlns:xlink="http://www.w3.org/1999/xlink" x="0px" y="0px"
	 viewBox="0 0 790 100" style="enable-background:new 0 0 790 100;" xml:space="preserve">
<style type="text/css">
	.st0{fill:#FFFFFF;}
</style>
<g>
	<path class="st0" d="M746.7,26.6c-1.9-1.4-4.1-2.1-6.3-2.1h-18.1v51.5h6V52.6h12c3.4,0,6.3-1.4,8.8-4.4c2.5-2.9,3.7-6,3.7-9.3
		c0-2.7-0.5-5-1.6-7.1C750.1,29.8,748.6,28,746.7,26.6 M744.3,44.5c-1.2,1.7-3.1,2.6-5.5,2.6h-10.6V29.4h9.6c2.9,0,5,0.9,6.3,2.8
		c1.3,1.9,2,4,2,6.4C746.1,40.8,745.5,42.8,744.3,44.5"/>
	<path class="st0" d="M779.5,25.8c-4.4-7.2-10.2-13-17.5-17.4c-7.3-4.4-15.5-6.6-24.7-6.6c-9.1,0-17.3,2.2-24.5,6.5
		c-7.2,4.3-13,10.1-17.5,17.4c-4.4,7.2-6.6,15.5-6.6,24.7c0,9.1,2.2,17.3,6.6,24.5c4.4,7.2,10.2,13,17.4,17.4
		c7.2,4.4,15.4,6.6,24.5,6.6c13.5,0,25-4.7,34.5-14.2c9.5-9.5,14.2-20.9,14.2-34.3C786.1,41.1,783.9,32.9,779.5,25.8 M759,86.8
		c-6.3,3.8-13.5,5.7-21.6,5.7c-8.6,0-16.2-2.2-22.7-6.5c-6.5-4.3-11.4-9.6-14.7-15.7c-3.2-6.2-4.9-12.8-4.9-20
		c0-8.6,2.1-16.1,6.4-22.7c4.3-6.5,9.5-11.4,15.7-14.7c6.2-3.3,12.9-4.9,20.1-4.9c11.7,0,21.7,4.1,30,12.4
		c8.3,8.3,12.4,18.2,12.4,29.8c0,8-1.9,15.1-5.6,21.3C770.4,77.9,765.3,82.9,759,86.8"/>
	<path class="st0" d="M349.5,25.6c-4.4-7.3-10.3-13.1-17.5-17.5c-7.3-4.4-15.5-6.6-24.7-6.6c-9.1,0-17.3,2.2-24.5,6.5
		c-7.2,4.4-13,10.2-17.4,17.4c-4.4,7.3-6.6,15.5-6.6,24.7c0,9.9,2.5,18.6,7.5,26.1c5,7.6,11,13.2,18.1,17c7.1,3.8,14.7,5.6,22.9,5.6
		c9.9,0,18.6-2.5,26.1-7.5c7.6-5,13.2-11.1,17-18.2c3.8-7.2,5.7-14.9,5.7-23.1C356.2,41.1,353.9,32.8,349.5,25.6 M344.2,71.2
		c-3.8,6.2-8.8,11.3-15.1,15.1c-6.3,3.8-13.4,5.8-21.4,5.8c-11.8,0-21.9-4.1-30.1-12.2c-8.3-8.2-12.4-18.1-12.4-29.9
		c0-7.9,1.9-15,5.7-21.2c3.8-6.3,8.9-11.3,15.3-15.1c6.3-3.8,13.5-5.7,21.5-5.7c7.9,0,14.9,1.9,21.2,5.7c6.3,3.8,11.3,8.8,15.2,15.1
		c3.8,6.3,5.8,13.4,5.8,21.3C349.8,57.9,348,65,344.2,71.2"/>
	<path class="st0" d="M308.5,55.9h8.5v6c0,3-1,5.4-2.9,7.1c-1.9,1.7-4.2,2.5-6.8,2.5c-3,0-5.2-1.6-6.6-4.9
		c-1.4-3.3-2.1-9.8-2.1-19.7c0-11.8,3.2-17.6,9.8-17.6c3.1,0,5.3,1.1,6.5,3.4c1.2,2.2,1.8,5.4,1.8,9.3h6v-2.5c0-3.4-0.6-6.3-1.7-8.7
		c-1.1-2.3-2.7-4.2-4.8-5.4c-2.1-1.3-4.7-1.9-7.7-1.9c-4.1,0-7.3,1.1-9.7,3.2c-2.4,2.1-4.1,5.1-5.2,8.8c-1,3.8-1.5,8.4-1.5,13.9
		c0,9.2,1.1,16.1,3.4,20.8c2.3,4.7,6.1,7.1,11.5,7.1c3.7,0,7.3-2,10.7-6.1l0.9,4.8h4.4V50.4h-14.5V55.9z"/>
	<path class="st0" d="M457.1,25.8c-4.4-7.2-10.2-13-17.5-17.4C432.4,4,424.1,1.8,415,1.8c-9.1,0-17.3,2.2-24.5,6.5
		c-7.2,4.3-13,10.1-17.5,17.4c-4.4,7.2-6.6,15.5-6.6,24.7c0,9.1,2.2,17.3,6.6,24.5c4.4,7.2,10.2,13,17.4,17.4
		c7.2,4.4,15.4,6.6,24.5,6.6c13.5,0,25-4.7,34.5-14.2c9.5-9.5,14.2-20.9,14.2-34.3C463.6,41.1,461.4,32.9,457.1,25.8 M436.5,86.8
		c-6.3,3.8-13.5,5.7-21.6,5.7c-8.6,0-16.2-2.2-22.7-6.5c-6.5-4.3-11.4-9.6-14.7-15.7c-3.2-6.2-4.9-12.8-4.9-20
		c0-8.6,2.1-16.1,6.4-22.7c4.3-6.5,9.5-11.4,15.7-14.7c6.2-3.3,12.9-4.9,20.1-4.9c11.7,0,21.7,4.1,30,12.4
		c8.3,8.3,12.4,18.2,12.4,29.8c0,8-1.9,15.1-5.6,21.3C447.9,77.9,442.9,82.9,436.5,86.8"/>
	<path class="st0" d="M428.1,66.8l0.2-7.2c0-3.5-0.5-6.1-1.5-7.6c-1-1.6-2.4-2.7-4.3-3.5c2.5-1.7,4.2-3.3,5.2-4.8
		c1-1.5,1.5-3.6,1.5-6.4c0-3.8-1-6.9-3.1-9.3c-2.1-2.4-4.7-3.6-7.9-3.6h-18.1v51.6h6V51.2h9.4c2.2,0,3.8,0.6,4.8,1.8
		c1.1,1.2,1.5,3.4,1.5,6.5l-0.1,6.2c0,4.6,0.6,8,1.8,10.4h6.4C428.7,73.7,428.1,70.6,428.1,66.8 M413.3,46.6h-7.2V29.9h9.4
		c2.1,0,3.8,0.7,5.1,2c1.3,1.4,2,3.2,2,5.6C422.7,43.5,419.5,46.6,413.3,46.6"/>
	<path class="st0" d="M564.5,25.6c-4.4-7.3-10.3-13.1-17.5-17.5c-7.3-4.4-15.5-6.6-24.7-6.6c-9.1,0-17.3,2.2-24.5,6.5
		c-7.2,4.4-13,10.2-17.4,17.4c-4.4,7.3-6.6,15.5-6.6,24.7c0,9.9,2.5,18.6,7.5,26.1c5,7.6,11,13.2,18.1,17c7.1,3.8,14.7,5.6,22.9,5.6
		c9.9,0,18.6-2.5,26.1-7.5c7.6-5,13.2-11.1,17-18.2c3.8-7.2,5.7-14.9,5.7-23.1C571.1,41.1,568.9,32.8,564.5,25.6 M559.2,71.2
		c-3.8,6.2-8.8,11.3-15.1,15.1c-6.3,3.8-13.4,5.8-21.4,5.8c-11.8,0-21.9-4.1-30.1-12.2c-8.3-8.2-12.4-18.1-12.4-29.9
		c0-7.9,1.9-15,5.7-21.2c3.8-6.3,8.9-11.3,15.3-15.1c6.3-3.8,13.5-5.7,21.5-5.7c7.9,0,14.9,1.9,21.2,5.7c6.3,3.8,11.3,8.8,15.2,15.1
		c3.8,6.3,5.8,13.4,5.8,21.3C564.8,57.9,562.9,65,559.2,71.2"/>
	<path class="st0" d="M522.5,23.6c-6.1,0-10.7,2.3-13.7,6.9c-3,4.6-4.5,11.2-4.5,19.6c0,8.2,1.4,14.7,4.2,19.5
		c2.8,4.9,7.3,7.3,13.5,7.3c12.4,0,18.6-8.7,18.6-26.1C540.6,32.7,534.6,23.6,522.5,23.6 M531.2,66.1c-1.9,3.4-4.9,5.1-8.9,5.1
		c-2.6,0-4.8-0.8-6.4-2.3c-1.7-1.5-2.9-3.7-3.7-6.7c-0.8-2.9-1.2-6.9-1.2-12c0-5.6,0.5-9.9,1.6-12.9c1-3,2.4-5.1,4.1-6.2
		c1.7-1.2,3.7-1.7,6.1-1.7c3.7,0,6.5,1.5,8.4,4.4c1.9,3,2.9,8.5,2.9,16.6C534.1,57.4,533.1,62.7,531.2,66.1"/>
	<path class="st0" d="M672,25.8c-4.4-7.2-10.2-13-17.5-17.4c-7.3-4.4-15.5-6.6-24.7-6.6c-9.1,0-17.3,2.2-24.5,6.5
		c-7.2,4.3-13,10.1-17.5,17.4c-4.4,7.2-6.6,15.5-6.6,24.7c0,9.1,2.2,17.3,6.6,24.5c4.4,7.2,10.2,13,17.4,17.4
		c7.2,4.4,15.4,6.6,24.5,6.6c13.5,0,25-4.7,34.5-14.2c9.5-9.5,14.2-20.9,14.2-34.3C678.6,41.1,676.4,32.9,672,25.8 M651.5,86.8
		c-6.3,3.8-13.5,5.7-21.6,5.7c-8.6,0-16.2-2.2-22.7-6.5c-6.5-4.3-11.4-9.6-14.7-15.7c-3.2-6.2-4.9-12.8-4.9-20
		c0-8.6,2.1-16.1,6.4-22.7c4.3-6.5,9.5-11.4,15.7-14.7c6.2-3.3,12.9-4.9,20.1-4.9c11.7,0,21.7,4.1,30,12.4
		c8.3,8.3,12.4,18.2,12.4,29.8c0,8-1.9,15.1-5.6,21.3C662.9,77.9,657.8,82.9,651.5,86.8"/>
	<path class="st0" d="M638.1,62.1c0,5.8-2.8,8.7-8.5,8.7c-2.4,0-4.3-0.8-5.7-2.4c-1.4-1.6-2.1-3.9-2.1-6.9V24h-6v35.1
		c0,11.6,4.6,17.4,13.7,17.4c4.8,0,8.4-1.3,10.9-4c2.4-2.7,3.7-6.2,3.7-10.7V24h-6V62.1z"/>
	<path class="st0" d="M58.8,37.8c0-2.5-0.7-4.5-2-6c-1.3-1.5-3.1-2.3-5.3-2.3h-8.7v17.2h6.3C55.5,46.7,58.8,43.7,58.8,37.8
		 M51.5,51.6h-8.7v19.8h9.3c5.1,0,7.6-3.4,7.6-10.2c0-3.1-0.7-5.4-2.2-7.1C56.1,52.4,54.1,51.6,51.5,51.6 M93.6,25.6
		c-4.4-7.3-10.3-13.1-17.5-17.5c-7.3-4.4-15.5-6.6-24.7-6.6c-9.1,0-17.3,2.2-24.5,6.5c-7.2,4.4-13,10.2-17.4,17.4
		C5.2,32.8,3,41,3,50.3c0,9.9,2.5,18.6,7.5,26.1c5,7.6,11,13.2,18.1,17c7.1,3.8,14.7,5.6,22.9,5.6c9.9,0,18.6-2.5,26.1-7.5
		c7.6-5,13.2-11.1,17-18.2c3.8-7.2,5.7-14.9,5.7-23.1C100.2,41.1,98,32.8,93.6,25.6 M62.1,72.2c-2.8,2.5-5.6,3.8-8.4,3.8H36.9V24.6
		h17.1c3.4,0,6.1,1.3,8.2,4c2.1,2.7,3.2,5.7,3.2,9.3c0,4.8-2.5,8.6-7.5,11.4c3.1,1,5.3,2.4,6.6,4.2c1.3,1.8,2,4.5,2,8.2
		C66.3,66.2,64.9,69.7,62.1,72.2"/>
	<path class="st0" d="M201.1,25.8c-4.4-7.2-10.2-13-17.5-17.4C176.4,4,168.2,1.8,159,1.8c-9.1,0-17.3,2.2-24.5,6.5
		c-7.2,4.3-13,10.1-17.5,17.4c-4.4,7.2-6.6,15.5-6.6,24.7c0,9.1,2.2,17.3,6.6,24.5c4.4,7.2,10.2,13,17.4,17.4
		c7.2,4.4,15.4,6.6,24.5,6.6c13.5,0,25-4.7,34.5-14.2c9.5-9.5,14.2-20.9,14.2-34.3C207.7,41.1,205.5,32.9,201.1,25.8 M178.5,76.1h-6
		V32l-10.3,44h-6l-10.4-43.6v43.6h-6V24.5H150l9,42.8l9.3-42.8h10.2V76.1z"/>
</g>
</svg>
