<?xml version="1.0" encoding="utf-8"?>
<!-- Generator: Adobe Illustrator 24.0.0, SVG Export Plug-In . SVG Version: 6.00 Build 0)  -->
<svg version="1.1" id="Capa_1" xmlns="http://www.w3.org/2000/svg" xmlns:xlink="http://www.w3.org/1999/xlink" x="0px" y="0px"
	 viewBox="0 0 42 42" style="enable-background:new 0 0 42 42;" xml:space="preserve">
<style type="text/css">
	.st0{fill:none;stroke:#00416B;stroke-width:1.5716;stroke-miterlimit:10;}
	.st1{fill-rule:evenodd;clip-rule:evenodd;fill:#00416B;}
</style>
<g id="XMLID_53_">
	<path id="XMLID_59_" class="st0" d="M21.2,41c-25.3,0.4-25.3-39.4,0-39C46.5,1.6,46.5,41.4,21.2,41z"/>
	<g id="XMLID_54_">
		<path id="XMLID_56_" class="st1" d="M31.9,20.9C31,3.6,3.7,11.5,12.4,26.6l-1.9,5.6l5.8-1.9C23.1,34.3,32.3,28.8,31.9,20.9z
			 M21.4,30c-1.8,0-3.5-0.5-4.9-1.5l-3.4,1.1l1.1-3.3c-4.3-5.5,0.1-14.1,7.2-13.9C32.9,12.3,32.8,30.1,21.4,30z"/>
		<path id="XMLID_55_" class="st1" d="M26.2,23.3c-0.6-0.1-1.9-1.3-2.3-0.7c-0.4,0.4-0.7,1.4-1.4,1.1c-0.6,0-4.2-2.6-3.4-3.6
			c1.2-0.9,0.3-1.9-0.2-3.2c-0.4-0.8-1.2-0.5-1.8-0.1c-2.3,3.3,0.3,6.2,4.6,8.6C24.9,27.2,27.9,25.1,26.2,23.3z"/>
	</g>
</g>
</svg>
