<?xml version="1.0" encoding="utf-8"?>
<!-- Generator: Adobe Illustrator 24.0.0, SVG Export Plug-In . SVG Version: 6.00 Build 0)  -->
<svg version="1.1" id="Capa_1" xmlns="http://www.w3.org/2000/svg" xmlns:xlink="http://www.w3.org/1999/xlink" x="0px" y="0px"
	 viewBox="0 0 448 512" style="enable-background:new 0 0 448 512;" xml:space="preserve">
<style type="text/css">
	.st0{fill:#F3AB3C;}
</style>
<path class="st0" d="M224.1,171c-63.6,0-114.9,51.3-114.9,114.9s51.3,114.9,114.9,114.9S339,349.5,339,285.9S287.7,171,224.1,171z
	 M224.1,360.6c-41.1,0-74.7-33.5-74.7-74.7s33.5-74.7,74.7-74.7s74.7,33.5,74.7,74.7S265.2,360.6,224.1,360.6L224.1,360.6z
	 M370.5,166.3c0,14.9-12,26.8-26.8,26.8c-14.9,0-26.8-12-26.8-26.8s12-26.8,26.8-26.8S370.5,151.5,370.5,166.3z M446.6,193.5
	c-1.7-35.9-9.9-67.7-36.2-93.9c-26.2-26.2-58-34.4-93.9-36.2c-37-2.1-147.9-2.1-184.9,0C95.8,65.1,64,73.3,37.7,99.5
	s-34.4,58-36.2,93.9c-2.1,37-2.1,147.9,0,184.9c1.7,35.9,9.9,67.7,36.2,93.9s58,34.4,93.9,36.2c37,2.1,147.9,2.1,184.9,0
	c35.9-1.7,67.7-9.9,93.9-36.2c26.2-26.2,34.4-58,36.2-93.9C448.7,341.3,448.7,230.5,446.6,193.5L446.6,193.5z M398.8,418
	c-7.8,19.6-22.9,34.7-42.6,42.6c-29.5,11.7-99.5,9-132.1,9s-102.7,2.6-132.1-9c-19.6-7.8-34.7-22.9-42.6-42.6
	c-11.7-29.5-9-99.5-9-132.1s-2.6-102.7,9-132.1c7.8-19.6,22.9-34.7,42.6-42.6c29.5-11.7,99.5-9,132.1-9s102.7-2.6,132.1,9
	c19.6,7.8,34.7,22.9,42.6,42.6c11.7,29.5,9,99.5,9,132.1S410.5,388.6,398.8,418z"/>
</svg>
