<?xml version="1.0" encoding="utf-8"?>
<!-- Generator: Adobe Illustrator 24.0.0, SVG Export Plug-In . SVG Version: 6.00 Build 0)  -->
<svg version="1.1" id="Capa_1" xmlns="http://www.w3.org/2000/svg" xmlns:xlink="http://www.w3.org/1999/xlink" x="0px" y="0px"
	 viewBox="0 0 448 512" style="enable-background:new 0 0 448 512;" xml:space="preserve">
<style type="text/css">
	.st0{fill:#F3AB3C;}
</style>
<path class="st0" d="M100.3,510H7.4V210.9h92.9V510z M53.8,170.1C24.1,170.1,0,145.5,0,115.8S24.1,62,53.8,62s53.8,24.1,53.8,53.8
	S83.5,170.1,53.8,170.1z M447.9,510h-92.7V364.4c0-34.7-0.7-79.2-48.3-79.2c-48.3,0-55.7,37.7-55.7,76.7V510h-92.8V210.9h89.1v40.8
	h1.3c12.4-23.5,42.7-48.3,87.9-48.3c94,0,111.3,61.9,111.3,142.3V510H447.9z"/>
</svg>
