<?xml version="1.0" encoding="utf-8"?>
<!-- Generator: Adobe Illustrator 24.0.0, SVG Export Plug-In . SVG Version: 6.00 Build 0)  -->
<svg version="1.1" id="Capa_1" xmlns="http://www.w3.org/2000/svg" xmlns:xlink="http://www.w3.org/1999/xlink" x="0px" y="0px"
	 viewBox="0 0 360 50" style="enable-background:new 0 0 360 50;" xml:space="preserve">
<style type="text/css">
	.st0{fill:#FEBE10;}
</style>
<g id="Logo-amarillo-bmgroup">
	<path class="st0" d="M338.5,14.7c-0.9-0.6-1.8-1-2.9-1h-8.2V37h2.7V26.4h5.4c1.5,0,2.8-0.7,3.9-2c1.1-1.3,1.7-2.7,1.7-4.2
		c0-1.2-0.2-2.3-0.7-3.2C340.1,16.1,339.4,15.3,338.5,14.7 M337.4,22.8c-0.6,0.8-1.4,1.2-2.5,1.2h-4.8v-8h4.3c1.3,0,2.3,0.4,2.9,1.3
		c0.6,0.8,0.9,1.8,0.9,2.9C338.3,21.1,338,22,337.4,22.8"/>
	<path class="st0" d="M353.3,14.3c-2-3.2-4.6-5.9-7.9-7.8c-3.3-2-7-3-11.1-3c-4.1,0-7.8,1-11,2.9c-3.3,2-5.9,4.6-7.9,7.8
		c-2,3.3-3,7-3,11.1c0,4.1,1,7.8,3,11.1c2,3.3,4.6,5.9,7.9,7.9c3.3,2,6.9,3,11.1,3c6.1,0,11.3-2.1,15.5-6.4
		c4.3-4.3,6.4-9.4,6.4-15.5C356.3,21.2,355.3,17.6,353.3,14.3 M344.1,41.8c-2.9,1.7-6.1,2.6-9.7,2.6c-3.9,0-7.3-1-10.2-2.9
		c-2.9-1.9-5.2-4.3-6.6-7.1c-1.5-2.8-2.2-5.8-2.2-9c0-3.9,1-7.3,2.9-10.2c1.9-2.9,4.3-5.1,7.1-6.6c2.8-1.5,5.8-2.2,9-2.2
		c5.3,0,9.8,1.9,13.5,5.6c3.7,3.7,5.6,8.2,5.6,13.5c0,3.6-0.8,6.8-2.5,9.6C349.2,37.8,346.9,40.1,344.1,41.8"/>
	<path class="st0" d="M159.4,14.2c-2-3.3-4.6-5.9-7.9-7.9c-3.3-2-7-3-11.1-3c-4.1,0-7.8,1-11,2.9c-3.2,2-5.9,4.6-7.8,7.9
		c-2,3.3-3,7-3,11.2c0,4.5,1.1,8.4,3.4,11.8c2.2,3.4,5,6,8.2,7.7c3.2,1.7,6.6,2.5,10.3,2.5c4.5,0,8.4-1.1,11.8-3.4
		c3.4-2.2,6-5,7.7-8.2c1.7-3.2,2.6-6.7,2.6-10.4C162.4,21.2,161.4,17.5,159.4,14.2 M157,34.8c-1.7,2.8-4,5.1-6.8,6.8
		c-2.8,1.7-6.1,2.6-9.6,2.6c-5.3,0-9.9-1.8-13.6-5.5c-3.7-3.7-5.6-8.2-5.6-13.5c0-3.6,0.9-6.8,2.6-9.6c1.7-2.8,4-5.1,6.9-6.8
		c2.9-1.7,6.1-2.6,9.7-2.6c3.5,0,6.7,0.9,9.6,2.6c2.8,1.7,5.1,4,6.8,6.8c1.7,2.8,2.6,6,2.6,9.6C159.6,28.8,158.7,32,157,34.8"/>
	<path class="st0" d="M140.9,27.9h3.8v2.7c0,1.4-0.4,2.4-1.3,3.2c-0.9,0.8-1.9,1.1-3,1.1c-1.3,0-2.3-0.7-3-2.2c-0.6-1.5-1-4.4-1-8.9
		c0-5.3,1.5-7.9,4.4-7.9c1.4,0,2.4,0.5,2.9,1.5c0.5,1,0.8,2.4,0.8,4.2h2.7v-1.1c0-1.5-0.2-2.8-0.7-3.9c-0.5-1.1-1.2-1.9-2.2-2.4
		c-0.9-0.6-2.1-0.9-3.5-0.9c-1.8,0-3.3,0.5-4.4,1.4c-1.1,1-1.9,2.3-2.3,4c-0.5,1.7-0.7,3.8-0.7,6.3c0,4.1,0.5,7.3,1.5,9.4
		c1,2.1,2.8,3.2,5.2,3.2c1.7,0,3.3-0.9,4.8-2.7l0.4,2.2h2V25.4h-6.6V27.9z"/>
	<path class="st0" d="M207.9,14.3c-2-3.2-4.6-5.9-7.9-7.8c-3.3-2-7-3-11.1-3c-4.1,0-7.8,1-11,2.9c-3.3,2-5.9,4.6-7.9,7.8
		c-2,3.3-3,7-3,11.1c0,4.1,1,7.8,3,11.1c2,3.3,4.6,5.9,7.9,7.9c3.3,2,6.9,3,11.1,3c6.1,0,11.3-2.1,15.5-6.4
		c4.3-4.3,6.4-9.4,6.4-15.5C210.9,21.2,209.9,17.6,207.9,14.3 M198.7,41.8c-2.9,1.7-6.1,2.6-9.7,2.6c-3.9,0-7.3-1-10.2-2.9
		c-2.9-1.9-5.2-4.3-6.6-7.1c-1.5-2.8-2.2-5.8-2.2-9c0-3.9,1-7.3,2.9-10.2c1.9-2.9,4.3-5.1,7.1-6.6c2.8-1.5,5.8-2.2,9-2.2
		c5.3,0,9.8,1.9,13.5,5.6c3.7,3.7,5.6,8.2,5.6,13.5c0,3.6-0.8,6.8-2.5,9.6C203.8,37.8,201.5,40.1,198.7,41.8"/>
	<path class="st0" d="M194.9,32.8l0.1-3.2c0-1.6-0.2-2.7-0.7-3.4c-0.4-0.7-1.1-1.2-1.9-1.6c1.1-0.8,1.9-1.5,2.3-2.2
		c0.4-0.7,0.7-1.6,0.7-2.9c0-1.7-0.5-3.1-1.4-4.2c-0.9-1.1-2.1-1.6-3.6-1.6h-8.2V37h2.7V25.8h4.2c1,0,1.7,0.3,2.2,0.8
		c0.5,0.5,0.7,1.5,0.7,2.9l0,2.8c0,2.1,0.3,3.6,0.8,4.7h2.9C195.1,35.9,194.9,34.5,194.9,32.8 M188.2,23.7H185v-7.5h4.2
		c1,0,1.7,0.3,2.3,0.9c0.6,0.6,0.9,1.4,0.9,2.5C192.4,22.3,191,23.7,188.2,23.7"/>
	<path class="st0" d="M256.4,14.2c-2-3.3-4.6-5.9-7.9-7.9c-3.3-2-7-3-11.1-3c-4.1,0-7.8,1-11,2.9c-3.2,2-5.9,4.6-7.8,7.9
		c-2,3.3-3,7-3,11.2c0,4.5,1.1,8.4,3.4,11.8c2.2,3.4,5,6,8.2,7.7c3.2,1.7,6.6,2.5,10.3,2.5c4.5,0,8.4-1.1,11.8-3.4
		c3.4-2.2,6-5,7.7-8.2c1.7-3.2,2.6-6.7,2.6-10.4C259.4,21.2,258.4,17.5,256.4,14.2 M254,34.8c-1.7,2.8-4,5.1-6.8,6.8
		c-2.8,1.7-6.1,2.6-9.6,2.6c-5.3,0-9.9-1.8-13.6-5.5c-3.7-3.7-5.6-8.2-5.6-13.5c0-3.6,0.9-6.8,2.6-9.6c1.7-2.8,4-5.1,6.9-6.8
		c2.9-1.7,6.1-2.6,9.7-2.6c3.5,0,6.7,0.9,9.6,2.6c2.8,1.7,5.1,4,6.8,6.8c1.7,2.8,2.6,6,2.6,9.6C256.5,28.8,255.7,32,254,34.8"/>
	<path class="st0" d="M237.5,13.3c-2.8,0-4.8,1-6.2,3.1c-1.4,2.1-2,5-2,8.8c0,3.7,0.6,6.6,1.9,8.8c1.3,2.2,3.3,3.3,6.1,3.3
		c5.6,0,8.4-3.9,8.4-11.8C245.6,17.4,242.9,13.3,237.5,13.3 M241.4,32.5c-0.9,1.5-2.2,2.3-4,2.3c-1.2,0-2.1-0.3-2.9-1
		c-0.8-0.7-1.3-1.7-1.7-3c-0.3-1.3-0.5-3.1-0.5-5.4c0-2.5,0.2-4.5,0.7-5.8c0.5-1.4,1.1-2.3,1.9-2.8c0.8-0.5,1.7-0.8,2.7-0.8
		c1.7,0,2.9,0.7,3.8,2c0.9,1.3,1.3,3.8,1.3,7.5C242.6,28.6,242.2,31,241.4,32.5"/>
	<path class="st0" d="M304.9,14.3c-2-3.2-4.6-5.9-7.9-7.8c-3.3-2-7-3-11.1-3c-4.1,0-7.8,1-11,2.9c-3.3,2-5.9,4.6-7.9,7.8
		c-2,3.3-3,7-3,11.1c0,4.1,1,7.8,3,11.1c2,3.3,4.6,5.9,7.9,7.9c3.3,2,6.9,3,11.1,3c6.1,0,11.3-2.1,15.5-6.4
		c4.3-4.3,6.4-9.4,6.4-15.5C307.8,21.2,306.8,17.6,304.9,14.3 M295.6,41.8c-2.9,1.7-6.1,2.6-9.7,2.6c-3.9,0-7.3-1-10.2-2.9
		c-2.9-1.9-5.2-4.3-6.6-7.1c-1.5-2.8-2.2-5.8-2.2-9c0-3.9,1-7.3,2.9-10.2c1.9-2.9,4.3-5.1,7.1-6.6c2.8-1.5,5.8-2.2,9-2.2
		c5.3,0,9.8,1.9,13.5,5.6c3.7,3.7,5.6,8.2,5.6,13.5c0,3.6-0.8,6.8-2.5,9.6C300.7,37.8,298.5,40.1,295.6,41.8"/>
	<path class="st0" d="M289.6,30.7c0,2.6-1.3,3.9-3.8,3.9c-1.1,0-2-0.4-2.6-1.1c-0.6-0.7-0.9-1.8-0.9-3.1V13.5h-2.7v15.8
		c0,5.2,2.1,7.9,6.2,7.9c2.2,0,3.8-0.6,4.9-1.8c1.1-1.2,1.7-2.8,1.7-4.8V13.5h-2.7V30.7z"/>
	<path class="st0" d="M28.3,19.8c0-1.1-0.3-2-0.9-2.7c-0.6-0.7-1.4-1-2.4-1h-3.9v7.8H24C26.9,23.8,28.3,22.4,28.3,19.8 M25,26h-3.9
		v8.9h4.2c2.3,0,3.4-1.5,3.4-4.6c0-1.4-0.3-2.4-1-3.2C27.1,26.3,26.2,26,25,26 M44,14.2c-2-3.3-4.6-5.9-7.9-7.9c-3.3-2-7-3-11.1-3
		c-4.1,0-7.8,1-11,2.9c-3.2,2-5.9,4.6-7.8,7.9c-2,3.3-3,7-3,11.2c0,4.5,1.1,8.4,3.4,11.8c2.2,3.4,5,6,8.2,7.7
		c3.2,1.7,6.6,2.5,10.3,2.5c4.5,0,8.4-1.1,11.8-3.4c3.4-2.2,6-5,7.7-8.2c1.7-3.2,2.6-6.7,2.6-10.4C47,21.2,46,17.5,44,14.2
		 M29.8,35.3C28.6,36.4,27.3,37,26,37h-7.6V13.8h7.7c1.5,0,2.7,0.6,3.7,1.8c1,1.2,1.4,2.6,1.4,4.2c0,2.2-1.1,3.9-3.4,5.1
		c1.4,0.5,2.4,1.1,3,1.9c0.6,0.8,0.9,2,0.9,3.7C31.7,32.5,31.1,34.1,29.8,35.3"/>
	<path class="st0" d="M92.5,14.3c-2-3.2-4.6-5.9-7.9-7.8c-3.3-2-7-3-11.1-3c-4.1,0-7.8,1-11,2.9c-3.3,2-5.9,4.6-7.9,7.8
		c-2,3.3-3,7-3,11.1c0,4.1,1,7.8,3,11c2,3.3,4.6,5.9,7.9,7.9c3.3,2,6.9,3,11.1,3c6.1,0,11.3-2.1,15.5-6.4c4.3-4.3,6.4-9.4,6.4-15.5
		C95.5,21.2,94.5,17.6,92.5,14.3 M82.3,37h-2.7V17.2L74.9,37h-2.7l-4.7-19.7V37h-2.7V13.8h4.6L73.5,33l4.2-19.3h4.6V37z"/>
</g>
</svg>
